<?xml version="1.0" encoding="UTF-8"?><svg id="Layer_1" xmlns="http://www.w3.org/2000/svg" viewBox="0 0 500 500"><path d="M432.92,125.13c-18.59-19.28-37.94-20.8-182.92-20.8s-164.34,1.52-182.92,20.8c-18.58,19.28-21.01,49.91-21.01,124.87s2.43,105.59,21.01,124.87c18.59,19.28,37.94,20.8,182.92,20.8s164.34-1.52,182.92-20.8c18.58-19.28,21.01-49.91,21.01-124.87s-2.43-105.59-21.01-124.87Zm-102.97,129.49l-119.94,69.25c-4.02,2.32-9.04-.58-9.04-5.22V180.15c0-4.64,5.02-7.54,9.04-5.22l119.94,69.25c4.02,2.32,4.02,8.12,0,10.44Z"/></svg>