<?xml version="1.0" encoding="UTF-8"?><svg id="Layer_1" xmlns="http://www.w3.org/2000/svg" viewBox="0 0 500 500"><path d="M31.56,387.24c39.63,25.47,86.76,40.28,137.39,40.28,164.87,0,255.03-136.57,255.03-255,0-3.88-.1-7.8-.24-11.61,17.5-12.63,32.69-28.43,44.71-46.41-16.11,7.15-33.37,11.95-51.52,14.13,18.52-11.1,32.76-28.67,39.43-49.58-17.3,10.25-36.54,17.71-56.93,21.72-16.34-17.43-39.63-28.3-65.41-28.3-49.51,0-89.65,40.11-89.65,89.62,0,7.01,.82,13.86,2.35,20.43-74.5-3.75-140.52-39.43-184.75-93.67-7.73,13.28-12.12,28.67-12.12,45.08,0,31.09,15.8,58.53,39.87,74.64-14.71-.48-28.53-4.53-40.62-11.24v1.12c0,43.45,30.92,79.64,71.88,87.92-7.49,2.04-15.42,3.13-23.6,3.13-5.79,0-11.41-.54-16.89-1.63,11.44,35.58,44.54,61.56,83.73,62.28-30.64,24.04-69.29,38.34-111.31,38.34-7.25,0-14.37-.41-21.35-1.26Z"/></svg>