<?xml version="1.0" encoding="UTF-8"?><svg id="Layer_1" xmlns="http://www.w3.org/2000/svg" viewBox="0 0 500 500"><path d="M428,108.35c-42.62-34.3-110.04-40.11-112.92-40.32-4.48-.38-8.74,2.13-10.58,6.27-.17,.25-1.63,3.64-3.26,8.91,28.19,4.77,62.82,14.35,94.14,33.79,5.02,3.1,6.57,9.7,3.47,14.72-2.05,3.3-5.52,5.1-9.12,5.1-1.92,0-3.89-.54-5.65-1.63-53.87-33.42-121.12-35.09-134.09-35.09s-80.26,1.67-134.09,35.09c-5.02,3.14-11.63,1.59-14.72-3.43-3.14-5.06-1.59-11.63,3.43-14.76,31.33-19.41,65.96-29.03,94.14-33.75-1.63-5.31-3.09-8.66-3.22-8.95-1.88-4.14-6.11-6.73-10.62-6.27-2.89,.21-70.31,6.02-113.51,40.78C48.87,129.68,3.74,251.64,3.74,357.07c0,1.88,.5,3.68,1.42,5.31,31.12,54.71,116.06,69.01,135.42,69.64h.33c3.43,0,6.65-1.63,8.66-4.39l19.57-26.93c-52.82-13.63-79.8-36.8-81.35-38.18-4.43-3.89-4.85-10.67-.92-15.1,3.89-4.43,10.67-4.85,15.1-.96,.63,.59,50.31,42.74,148.01,42.74s147.55-42.33,148.06-42.74c4.43-3.85,11.17-3.47,15.1,1,3.89,4.43,3.47,11.17-.96,15.06-1.55,1.38-28.52,24.55-81.35,38.18l19.57,26.93c2.01,2.76,5.23,4.39,8.66,4.39h.33c19.36-.63,104.31-14.93,135.42-69.64,.92-1.63,1.42-3.43,1.42-5.31,0-105.44-45.13-227.39-68.26-248.72Zm-247.6,205.9c-20.7,0-37.47-19.16-37.47-42.83s16.77-42.83,37.47-42.83,37.47,19.16,37.47,42.83-16.77,42.83-37.47,42.83Zm139.19,0c-20.7,0-37.47-19.16-37.47-42.83s16.77-42.83,37.47-42.83,37.47,19.16,37.47,42.83-16.77,42.83-37.47,42.83Z"/></svg>