<?xml version="1.0" encoding="UTF-8"?><svg id="Layer_1" xmlns="http://www.w3.org/2000/svg" viewBox="0 0 500 500"><circle cx="250" cy="250" r="60.67" transform="translate(-103.55 250) rotate(-45)"/><path d="M430.93,174.96c-2.97-66.04-39.7-102.84-105.86-105.88-19.43-.89-25.63-1.11-75.07-1.11s-55.62,.21-75.04,1.09c-66.1,3.03-102.84,39.71-105.88,105.88-.9,19.43-1.11,25.62-1.11,75.05s.21,55.64,1.09,75.05c3.03,66.1,39.71,102.84,105.88,105.88,19.43,.88,25.62,1.09,75.05,1.09s55.64-.21,75.05-1.09c66.04-3.03,102.87-39.71,105.86-105.88,.9-19.42,1.11-25.62,1.11-75.05s-.21-55.62-1.09-75.04Zm-180.93,168.52c-51.62,0-93.47-41.86-93.47-93.48s41.85-93.47,93.47-93.47,93.47,41.85,93.47,93.47-41.85,93.48-93.47,93.48Zm97.17-168.79c-12.07,0-21.86-9.78-21.86-21.84s9.78-21.84,21.86-21.84,21.83,9.78,21.83,21.84-9.77,21.84-21.83,21.84Z"/></svg>