<?xml version="1.0" encoding="UTF-8"?><svg id="Layer_1" xmlns="http://www.w3.org/2000/svg" viewBox="0 0 500 500"><path d="M132.89,92.48c47.4,35.59,98.39,107.74,117.11,146.46,18.72-38.72,69.7-110.88,117.11-146.46,34.2-25.68,89.62-45.55,89.62,17.68,0,12.63-7.24,106.07-11.48,121.24-14.76,52.74-68.54,66.19-116.37,58.05,83.62,14.23,104.89,61.37,58.95,108.51-87.25,89.53-125.4-22.46-135.18-51.16-1.79-5.26-2.63-7.72-2.64-5.63-.01-2.09-.85,.37-2.64,5.63-9.78,28.7-47.93,140.69-135.18,51.16-45.94-47.14-24.67-94.28,58.95-108.51-47.84,8.14-101.62-5.31-116.37-58.05-4.25-15.17-11.48-108.61-11.48-121.24,0-63.22,55.42-43.35,89.62-17.68h0Z"/></svg>